# xmcd CD database file
#
# Track frame offsets:
#	150
#	15019
#	33393
#	45170
#	61512
#	82901
#	97891
#	113536
#	130391
#	147201
#	171033
#	184567
#
# Disc length: 2627 seconds
#
# Revision: 0
# Processed by: cddbd v1.5.2PL0 Copyright (c) Steve Scherf et al.
# Submitted via: CDex 1.51
#
DISCID=7a0a410c
DTITLE=Emmylou Harris - Pieces Of The Sky (remastered)
DYEAR=1975
DGENRE=Country
TTITLE0=Bluebird Wine
TTITLE1=Too Far Gone
TTITLE2=If I Could Only Win Your Love
TTITLE3=Boulder To Birmingham
TTITLE4=Before Believing
TTITLE5=Bottle Let Me Down
TTITLE6=Sleepless Nights
TTITLE7=Coat Of Many Colors
TTITLE8=For No One
TTITLE9=Queen Of The Silver Dollar
TTITLE10=Hank and Lefty
TTITLE11=California Cotton Fields
EXTD=YEAR: 1975
EXTT0=
EXTT1=
EXTT2=
EXTT3=
EXTT4=
EXTT5=
EXTT6=
EXTT7=
EXTT8=
EXTT9=
EXTT10=
EXTT11=
PLAYORDER=
